<mxfile host="app.diagrams.net" modified="2024-06-24T18:59:35.504Z" agent="Mozilla/5.0 (Windows NT 10.0; Win64; x64) AppleWebKit/537.36 (KHTML, like Gecko) Chrome/126.0.0.0 Safari/537.36" etag="QhFp__lqD3bO9-4IxvoO" version="24.6.2" type="github">
  <diagram name="Page-1" id="l_9-RIlW9i13i7eaHmRu">
    <mxGraphModel dx="8293" dy="2588" grid="1" gridSize="10" guides="1" tooltips="1" connect="1" arrows="1" fold="1" page="1" pageScale="1" pageWidth="850" pageHeight="1100" math="0" shadow="0">
      <root>
        <mxCell id="0" />
        <mxCell id="1" parent="0" />
        <mxCell id="ouE3uGwMO_rl1Qw4itwe-15" value="Приём заказа" style="html=1;overflow=block;blockSpacing=1;whiteSpace=wrap;fontSize=23.3;align=center;spacing=9;verticalAlign=top;strokeColor=default;rounded=1;absoluteArcSize=1;arcSize=9;fillColor=none;strokeWidth=2;lucidId=HCPMqrkc3qt5;" parent="1" vertex="1">
          <mxGeometry x="-4320" y="650" width="610" height="320" as="geometry" />
        </mxCell>
        <mxCell id="RoE8E-zZMEs0R_7GRx1K-2" value="Ставки" style="html=1;overflow=block;blockSpacing=1;whiteSpace=wrap;fontSize=23.3;align=center;spacing=9;verticalAlign=top;strokeColor=default;rounded=1;absoluteArcSize=1;arcSize=9;fillColor=none;strokeWidth=2;lucidId=1zPMJR6yUo5M;" parent="1" vertex="1">
          <mxGeometry x="-4320" y="1020" width="680" height="220" as="geometry" />
        </mxCell>
        <mxCell id="ouE3uGwMO_rl1Qw4itwe-19" value="&lt;h1 style=&quot;margin-top: 0px;&quot;&gt;Модель данных&lt;/h1&gt;" style="text;html=1;whiteSpace=wrap;overflow=hidden;rounded=0;" parent="1" vertex="1">
          <mxGeometry x="-4890" y="180" width="340" height="150" as="geometry" />
        </mxCell>
        <mxCell id="NV0sQOw--nQRcqKtgvRX-2" value="Master Data (producer)" style="rounded=1;whiteSpace=wrap;html=1;" parent="1" vertex="1">
          <mxGeometry x="-4900" y="420" width="120" height="100" as="geometry" />
        </mxCell>
        <mxCell id="NV0sQOw--nQRcqKtgvRX-3" value="Read Data (consumer)" style="rounded=1;whiteSpace=wrap;html=1;strokeWidth=2;strokeColor=#009900;" parent="1" vertex="1">
          <mxGeometry x="-4900" y="550" width="120" height="100" as="geometry" />
        </mxCell>
        <mxCell id="NV0sQOw--nQRcqKtgvRX-4" value="Read Data&lt;br&gt;(in one DB)" style="rounded=1;whiteSpace=wrap;html=1;strokeWidth=2;strokeColor=#0000CC;" parent="1" vertex="1">
          <mxGeometry x="-4900" y="730" width="120" height="100" as="geometry" />
        </mxCell>
        <mxCell id="NV0sQOw--nQRcqKtgvRX-5" value="" style="endArrow=classic;html=1;rounded=0;strokeWidth=2;strokeColor=#009900;dashed=1;dashPattern=12 12;" parent="1" edge="1">
          <mxGeometry width="50" height="50" relative="1" as="geometry">
            <mxPoint x="-4895" y="680" as="sourcePoint" />
            <mxPoint x="-4785" y="680" as="targetPoint" />
          </mxGeometry>
        </mxCell>
        <UserObject label="Streaming communication" placeholders="1" name="Variable" id="NV0sQOw--nQRcqKtgvRX-7">
          <mxCell style="text;html=1;strokeColor=none;fillColor=none;align=center;verticalAlign=middle;whiteSpace=wrap;overflow=hidden;" parent="1" vertex="1">
            <mxGeometry x="-4740" y="670" width="160" height="20" as="geometry" />
          </mxCell>
        </UserObject>
        <mxCell id="NV0sQOw--nQRcqKtgvRX-8" value="" style="endArrow=classic;html=1;rounded=0;strokeWidth=2;strokeColor=#0000CC;dashed=1;dashPattern=12 12;" parent="1" edge="1">
          <mxGeometry width="50" height="50" relative="1" as="geometry">
            <mxPoint x="-4895" y="870" as="sourcePoint" />
            <mxPoint x="-4785" y="870" as="targetPoint" />
          </mxGeometry>
        </mxCell>
        <UserObject label="Shared data (in one DB)" placeholders="1" name="Variable" id="NV0sQOw--nQRcqKtgvRX-9">
          <mxCell style="text;html=1;strokeColor=none;fillColor=none;align=center;verticalAlign=middle;whiteSpace=wrap;overflow=hidden;" parent="1" vertex="1">
            <mxGeometry x="-4740" y="860" width="160" height="20" as="geometry" />
          </mxCell>
        </UserObject>
        <mxCell id="CVN7BSJcZvHQD1A9SU8C-6" value="has_many" style="edgeStyle=orthogonalEdgeStyle;rounded=0;orthogonalLoop=1;jettySize=auto;html=1;" edge="1" parent="1" source="CVN7BSJcZvHQD1A9SU8C-2" target="CVN7BSJcZvHQD1A9SU8C-3">
          <mxGeometry relative="1" as="geometry" />
        </mxCell>
        <mxCell id="CVN7BSJcZvHQD1A9SU8C-2" value="Заказ" style="rounded=1;whiteSpace=wrap;html=1;strokeWidth=2;strokeColor=#009900;" vertex="1" parent="1">
          <mxGeometry x="-4250" y="1100" width="120" height="100" as="geometry" />
        </mxCell>
        <mxCell id="CVN7BSJcZvHQD1A9SU8C-3" value="Ставка" style="rounded=1;whiteSpace=wrap;html=1;" vertex="1" parent="1">
          <mxGeometry x="-4040" y="1100" width="120" height="100" as="geometry" />
        </mxCell>
        <mxCell id="CVN7BSJcZvHQD1A9SU8C-5" value="has_many" style="edgeStyle=orthogonalEdgeStyle;rounded=0;orthogonalLoop=1;jettySize=auto;html=1;" edge="1" parent="1" source="CVN7BSJcZvHQD1A9SU8C-4" target="CVN7BSJcZvHQD1A9SU8C-3">
          <mxGeometry relative="1" as="geometry" />
        </mxCell>
        <mxCell id="CVN7BSJcZvHQD1A9SU8C-4" value="Менеджер" style="rounded=1;whiteSpace=wrap;html=1;" vertex="1" parent="1">
          <mxGeometry x="-3830" y="1100" width="120" height="100" as="geometry" />
        </mxCell>
        <mxCell id="CVN7BSJcZvHQD1A9SU8C-8" style="edgeStyle=orthogonalEdgeStyle;rounded=0;orthogonalLoop=1;jettySize=auto;html=1;entryX=0.5;entryY=0;entryDx=0;entryDy=0;strokeColor=#009900;" edge="1" parent="1" source="CVN7BSJcZvHQD1A9SU8C-7" target="CVN7BSJcZvHQD1A9SU8C-2">
          <mxGeometry relative="1" as="geometry" />
        </mxCell>
        <mxCell id="CVN7BSJcZvHQD1A9SU8C-7" value="Заказ" style="rounded=1;whiteSpace=wrap;html=1;strokeWidth=2;strokeColor=#000000;" vertex="1" parent="1">
          <mxGeometry x="-4250" y="740" width="120" height="100" as="geometry" />
        </mxCell>
        <mxCell id="CVN7BSJcZvHQD1A9SU8C-10" value="has_many" style="edgeStyle=orthogonalEdgeStyle;rounded=0;orthogonalLoop=1;jettySize=auto;html=1;" edge="1" parent="1" source="CVN7BSJcZvHQD1A9SU8C-9" target="CVN7BSJcZvHQD1A9SU8C-7">
          <mxGeometry relative="1" as="geometry" />
        </mxCell>
        <mxCell id="CVN7BSJcZvHQD1A9SU8C-9" value="Клиент" style="rounded=1;whiteSpace=wrap;html=1;strokeWidth=2;strokeColor=#000000;" vertex="1" parent="1">
          <mxGeometry x="-4040" y="740" width="120" height="100" as="geometry" />
        </mxCell>
        <mxCell id="CVN7BSJcZvHQD1A9SU8C-11" value="Обработка заказа" style="html=1;overflow=block;blockSpacing=1;whiteSpace=wrap;fontSize=23.3;align=center;spacing=9;verticalAlign=top;strokeColor=default;rounded=1;absoluteArcSize=1;arcSize=9;fillColor=none;strokeWidth=2;lucidId=HCPMqrkc3qt5;" vertex="1" parent="1">
          <mxGeometry x="-4320" y="290" width="610" height="300" as="geometry" />
        </mxCell>
        <mxCell id="CVN7BSJcZvHQD1A9SU8C-12" value="Заказ" style="rounded=1;whiteSpace=wrap;html=1;strokeWidth=2;strokeColor=#009900;" vertex="1" parent="1">
          <mxGeometry x="-4045" y="390" width="120" height="100" as="geometry" />
        </mxCell>
        <mxCell id="CVN7BSJcZvHQD1A9SU8C-13" value="Воркер" style="rounded=1;whiteSpace=wrap;html=1;strokeWidth=2;strokeColor=#009900;" vertex="1" parent="1">
          <mxGeometry x="-4100" y="850" width="120" height="100" as="geometry" />
        </mxCell>
        <mxCell id="CVN7BSJcZvHQD1A9SU8C-15" value="has_many" style="edgeStyle=orthogonalEdgeStyle;rounded=0;orthogonalLoop=1;jettySize=auto;html=1;entryX=0.5;entryY=1;entryDx=0;entryDy=0;" edge="1" parent="1" source="CVN7BSJcZvHQD1A9SU8C-14" target="CVN7BSJcZvHQD1A9SU8C-12">
          <mxGeometry relative="1" as="geometry" />
        </mxCell>
        <mxCell id="CVN7BSJcZvHQD1A9SU8C-14" value="Воркер" style="rounded=1;whiteSpace=wrap;html=1;strokeWidth=2;strokeColor=#009900;" vertex="1" parent="1">
          <mxGeometry x="-3895" y="480" width="120" height="100" as="geometry" />
        </mxCell>
        <mxCell id="CVN7BSJcZvHQD1A9SU8C-17" value="has_many" style="edgeStyle=orthogonalEdgeStyle;rounded=0;orthogonalLoop=1;jettySize=auto;html=1;entryX=0.5;entryY=0;entryDx=0;entryDy=0;" edge="1" parent="1" source="CVN7BSJcZvHQD1A9SU8C-16" target="CVN7BSJcZvHQD1A9SU8C-12">
          <mxGeometry relative="1" as="geometry" />
        </mxCell>
        <mxCell id="CVN7BSJcZvHQD1A9SU8C-16" value="Клиент" style="rounded=1;whiteSpace=wrap;html=1;strokeWidth=2;strokeColor=#000000;" vertex="1" parent="1">
          <mxGeometry x="-3895" y="350" width="120" height="100" as="geometry" />
        </mxCell>
        <mxCell id="CVN7BSJcZvHQD1A9SU8C-19" value="has_one" style="edgeStyle=orthogonalEdgeStyle;rounded=0;orthogonalLoop=1;jettySize=auto;html=1;exitX=1;exitY=0.5;exitDx=0;exitDy=0;" edge="1" parent="1" source="CVN7BSJcZvHQD1A9SU8C-18" target="CVN7BSJcZvHQD1A9SU8C-12">
          <mxGeometry relative="1" as="geometry">
            <mxPoint x="-4090" y="440" as="sourcePoint" />
          </mxGeometry>
        </mxCell>
        <mxCell id="CVN7BSJcZvHQD1A9SU8C-18" value="Отчёт" style="rounded=1;whiteSpace=wrap;html=1;strokeWidth=2;strokeColor=#000000;" vertex="1" parent="1">
          <mxGeometry x="-4280" y="390" width="120" height="100" as="geometry" />
        </mxCell>
        <mxCell id="CVN7BSJcZvHQD1A9SU8C-20" value="Найм" style="html=1;overflow=block;blockSpacing=1;whiteSpace=wrap;fontSize=23.3;align=center;spacing=9;verticalAlign=top;strokeColor=default;rounded=1;absoluteArcSize=1;arcSize=9;fillColor=none;strokeWidth=2;lucidId=1zPMJR6yUo5M;" vertex="1" parent="1">
          <mxGeometry x="-4320" y="1310" width="680" height="420" as="geometry" />
        </mxCell>
        <mxCell id="CVN7BSJcZvHQD1A9SU8C-27" value="has_one" style="edgeStyle=orthogonalEdgeStyle;rounded=0;orthogonalLoop=1;jettySize=auto;html=1;" edge="1" parent="1" source="CVN7BSJcZvHQD1A9SU8C-23" target="CVN7BSJcZvHQD1A9SU8C-24">
          <mxGeometry relative="1" as="geometry" />
        </mxCell>
        <mxCell id="CVN7BSJcZvHQD1A9SU8C-28" value="has_many" style="edgeStyle=orthogonalEdgeStyle;rounded=0;orthogonalLoop=1;jettySize=auto;html=1;entryX=0;entryY=0.5;entryDx=0;entryDy=0;" edge="1" parent="1" source="CVN7BSJcZvHQD1A9SU8C-23" target="CVN7BSJcZvHQD1A9SU8C-25">
          <mxGeometry relative="1" as="geometry">
            <Array as="points">
              <mxPoint x="-3920" y="1610" />
              <mxPoint x="-3920" y="1430" />
            </Array>
          </mxGeometry>
        </mxCell>
        <mxCell id="CVN7BSJcZvHQD1A9SU8C-30" value="has_one" style="edgeStyle=orthogonalEdgeStyle;rounded=0;orthogonalLoop=1;jettySize=auto;html=1;" edge="1" parent="1" source="CVN7BSJcZvHQD1A9SU8C-23" target="CVN7BSJcZvHQD1A9SU8C-29">
          <mxGeometry relative="1" as="geometry" />
        </mxCell>
        <mxCell id="CVN7BSJcZvHQD1A9SU8C-23" value="Кандидат" style="rounded=1;whiteSpace=wrap;html=1;strokeWidth=2;strokeColor=#000000;" vertex="1" parent="1">
          <mxGeometry x="-4050" y="1560" width="120" height="100" as="geometry" />
        </mxCell>
        <mxCell id="CVN7BSJcZvHQD1A9SU8C-26" value="has_many" style="edgeStyle=orthogonalEdgeStyle;rounded=0;orthogonalLoop=1;jettySize=auto;html=1;" edge="1" parent="1" source="CVN7BSJcZvHQD1A9SU8C-24" target="CVN7BSJcZvHQD1A9SU8C-25">
          <mxGeometry relative="1" as="geometry" />
        </mxCell>
        <mxCell id="CVN7BSJcZvHQD1A9SU8C-24" value="Вакансия" style="rounded=1;whiteSpace=wrap;html=1;strokeWidth=2;strokeColor=#000000;" vertex="1" parent="1">
          <mxGeometry x="-3850" y="1560" width="120" height="100" as="geometry" />
        </mxCell>
        <mxCell id="CVN7BSJcZvHQD1A9SU8C-25" value="Тест" style="rounded=1;whiteSpace=wrap;html=1;strokeWidth=2;strokeColor=#000000;" vertex="1" parent="1">
          <mxGeometry x="-3850" y="1380" width="120" height="100" as="geometry" />
        </mxCell>
        <mxCell id="CVN7BSJcZvHQD1A9SU8C-29" value="Результат" style="rounded=1;whiteSpace=wrap;html=1;strokeWidth=2;strokeColor=#000000;" vertex="1" parent="1">
          <mxGeometry x="-4250" y="1560" width="120" height="100" as="geometry" />
        </mxCell>
      </root>
    </mxGraphModel>
  </diagram>
</mxfile>
